<mxfile host="app.diagrams.net" modified="2024-09-04T14:40:14.730Z" agent="Mozilla/5.0 (Windows NT 10.0; Win64; x64; rv:129.0) Gecko/20100101 Firefox/129.0" etag="kmnJacHzMitIveTGeU1y" version="24.3.1" type="github">
  <diagram id="9XFrDMfPaP__T5PrbTT4" name="Page-1">
    <mxGraphModel dx="1674" dy="774" grid="1" gridSize="10" guides="1" tooltips="1" connect="1" arrows="1" fold="1" page="1" pageScale="1" pageWidth="850" pageHeight="1100" math="0" shadow="0">
      <root>
        <mxCell id="0" />
        <mxCell id="1" parent="0" />
        <mxCell id="fjDR_h0SIAO27UseuQJf-57" value="" style="rounded=0;whiteSpace=wrap;html=1;" parent="1" vertex="1">
          <mxGeometry x="51.5" y="430" width="638.5" height="410" as="geometry" />
        </mxCell>
        <mxCell id="fjDR_h0SIAO27UseuQJf-2" value="&lt;span style=&quot;font-size: 16px&quot;&gt;&lt;b&gt;File&lt;br&gt;&lt;/b&gt;&lt;/span&gt;" style="swimlane;html=1;fontStyle=0;childLayout=stackLayout;horizontal=1;startSize=26;fillColor=#ffe6cc;horizontalStack=0;resizeParent=1;resizeLast=0;collapsible=1;marginBottom=0;swimlaneFillColor=#ffffff;rounded=0;shadow=0;comic=0;labelBackgroundColor=none;strokeWidth=1;fontFamily=Verdana;fontSize=10;align=center;strokeColor=#d79b00;" parent="1" vertex="1">
          <mxGeometry x="80" y="70" width="230" height="104" as="geometry" />
        </mxCell>
        <mxCell id="fjDR_h0SIAO27UseuQJf-3" value="+ FileName string" style="text;html=1;strokeColor=#9673a6;fillColor=#e1d5e7;align=left;verticalAlign=top;spacingLeft=4;spacingRight=4;whiteSpace=wrap;overflow=hidden;rotatable=0;points=[[0,0.5],[1,0.5]];portConstraint=eastwest;" parent="fjDR_h0SIAO27UseuQJf-2" vertex="1">
          <mxGeometry y="26" width="230" height="26" as="geometry" />
        </mxCell>
        <mxCell id="fjDR_h0SIAO27UseuQJf-4" value="+ Size int64" style="text;html=1;strokeColor=#9673a6;fillColor=#e1d5e7;align=left;verticalAlign=top;spacingLeft=4;spacingRight=4;whiteSpace=wrap;overflow=hidden;rotatable=0;points=[[0,0.5],[1,0.5]];portConstraint=eastwest;" parent="fjDR_h0SIAO27UseuQJf-2" vertex="1">
          <mxGeometry y="52" width="230" height="26" as="geometry" />
        </mxCell>
        <mxCell id="fjDR_h0SIAO27UseuQJf-5" value="+ Date time.Time" style="text;html=1;strokeColor=#9673a6;fillColor=#e1d5e7;align=left;verticalAlign=top;spacingLeft=4;spacingRight=4;whiteSpace=wrap;overflow=hidden;rotatable=0;points=[[0,0.5],[1,0.5]];portConstraint=eastwest;" parent="fjDR_h0SIAO27UseuQJf-2" vertex="1">
          <mxGeometry y="78" width="230" height="26" as="geometry" />
        </mxCell>
        <mxCell id="fjDR_h0SIAO27UseuQJf-11" value="+ Extension string" style="text;html=1;strokeColor=#9673a6;fillColor=#e1d5e7;align=left;verticalAlign=top;spacingLeft=4;spacingRight=4;whiteSpace=wrap;overflow=hidden;rotatable=0;points=[[0,0.5],[1,0.5]];portConstraint=eastwest;" parent="1" vertex="1">
          <mxGeometry x="80" y="174" width="230" height="26" as="geometry" />
        </mxCell>
        <mxCell id="fjDR_h0SIAO27UseuQJf-16" value="+ Nexts []*Tree" style="text;html=1;strokeColor=#9673a6;fillColor=#e1d5e7;align=left;verticalAlign=top;spacingLeft=4;spacingRight=4;whiteSpace=wrap;overflow=hidden;rotatable=0;points=[[0,0.5],[1,0.5]];portConstraint=eastwest;" parent="1" vertex="1">
          <mxGeometry x="80" y="334" width="230" height="26" as="geometry" />
        </mxCell>
        <mxCell id="fjDR_h0SIAO27UseuQJf-12" value="&lt;span style=&quot;font-size: 16px&quot;&gt;&lt;b&gt;Tree&lt;br&gt;&lt;/b&gt;&lt;/span&gt;" style="swimlane;html=1;fontStyle=0;childLayout=stackLayout;horizontal=1;startSize=26;fillColor=#ffe6cc;horizontalStack=0;resizeParent=1;resizeLast=0;collapsible=1;marginBottom=0;swimlaneFillColor=#ffffff;rounded=0;shadow=0;comic=0;labelBackgroundColor=none;strokeWidth=1;fontFamily=Verdana;fontSize=10;align=center;strokeColor=#d79b00;" parent="1" vertex="1">
          <mxGeometry x="80" y="230" width="230" height="104" as="geometry" />
        </mxCell>
        <mxCell id="fjDR_h0SIAO27UseuQJf-13" value="+ Name string&amp;nbsp;" style="text;html=1;strokeColor=#9673a6;fillColor=#e1d5e7;align=left;verticalAlign=top;spacingLeft=4;spacingRight=4;whiteSpace=wrap;overflow=hidden;rotatable=0;points=[[0,0.5],[1,0.5]];portConstraint=eastwest;" parent="fjDR_h0SIAO27UseuQJf-12" vertex="1">
          <mxGeometry y="26" width="230" height="26" as="geometry" />
        </mxCell>
        <mxCell id="fjDR_h0SIAO27UseuQJf-14" value="+ Files []File" style="text;html=1;strokeColor=#9673a6;fillColor=#e1d5e7;align=left;verticalAlign=top;spacingLeft=4;spacingRight=4;whiteSpace=wrap;overflow=hidden;rotatable=0;points=[[0,0.5],[1,0.5]];portConstraint=eastwest;" parent="fjDR_h0SIAO27UseuQJf-12" vertex="1">
          <mxGeometry y="52" width="230" height="26" as="geometry" />
        </mxCell>
        <mxCell id="fjDR_h0SIAO27UseuQJf-15" value="+ Previous *Tree" style="text;html=1;strokeColor=#9673a6;fillColor=#e1d5e7;align=left;verticalAlign=top;spacingLeft=4;spacingRight=4;whiteSpace=wrap;overflow=hidden;rotatable=0;points=[[0,0.5],[1,0.5]];portConstraint=eastwest;" parent="fjDR_h0SIAO27UseuQJf-12" vertex="1">
          <mxGeometry y="78" width="230" height="26" as="geometry" />
        </mxCell>
        <mxCell id="fjDR_h0SIAO27UseuQJf-20" style="edgeStyle=orthogonalEdgeStyle;rounded=0;orthogonalLoop=1;jettySize=auto;html=1;exitX=0.5;exitY=1;exitDx=0;exitDy=0;entryX=0.5;entryY=0;entryDx=0;entryDy=0;strokeWidth=3;" parent="1" source="fjDR_h0SIAO27UseuQJf-17" target="fjDR_h0SIAO27UseuQJf-18" edge="1">
          <mxGeometry relative="1" as="geometry" />
        </mxCell>
        <mxCell id="fjDR_h0SIAO27UseuQJf-17" value="Directory-Tree" style="rounded=1;whiteSpace=wrap;html=1;fillColor=#dae8fc;strokeColor=#6c8ebf;" parent="1" vertex="1">
          <mxGeometry x="490" y="80" width="120" height="60" as="geometry" />
        </mxCell>
        <mxCell id="fjDR_h0SIAO27UseuQJf-21" style="edgeStyle=orthogonalEdgeStyle;rounded=0;orthogonalLoop=1;jettySize=auto;html=1;exitX=0.5;exitY=1;exitDx=0;exitDy=0;strokeWidth=3;" parent="1" source="fjDR_h0SIAO27UseuQJf-18" target="fjDR_h0SIAO27UseuQJf-19" edge="1">
          <mxGeometry relative="1" as="geometry" />
        </mxCell>
        <mxCell id="fjDR_h0SIAO27UseuQJf-18" value="go-Tree" style="rounded=1;whiteSpace=wrap;html=1;fillColor=#dae8fc;strokeColor=#6c8ebf;" parent="1" vertex="1">
          <mxGeometry x="490" y="200" width="120" height="60" as="geometry" />
        </mxCell>
        <mxCell id="fjDR_h0SIAO27UseuQJf-22" style="edgeStyle=orthogonalEdgeStyle;rounded=0;orthogonalLoop=1;jettySize=auto;html=1;exitX=0;exitY=0.5;exitDx=0;exitDy=0;entryX=0;entryY=0.5;entryDx=0;entryDy=0;fillColor=#e1d5e7;strokeColor=#9673a6;strokeWidth=3;" parent="1" source="fjDR_h0SIAO27UseuQJf-19" target="fjDR_h0SIAO27UseuQJf-18" edge="1">
          <mxGeometry relative="1" as="geometry" />
        </mxCell>
        <mxCell id="fjDR_h0SIAO27UseuQJf-19" value="json-Tree" style="rounded=1;whiteSpace=wrap;html=1;fillColor=#dae8fc;strokeColor=#6c8ebf;" parent="1" vertex="1">
          <mxGeometry x="490" y="317" width="120" height="60" as="geometry" />
        </mxCell>
        <mxCell id="fjDR_h0SIAO27UseuQJf-37" style="edgeStyle=orthogonalEdgeStyle;rounded=0;orthogonalLoop=1;jettySize=auto;html=1;exitX=0.5;exitY=0.5;exitDx=0;exitDy=0;exitPerimeter=0;entryX=0;entryY=0.5;entryDx=0;entryDy=0;strokeWidth=3;" parent="1" source="fjDR_h0SIAO27UseuQJf-25" target="fjDR_h0SIAO27UseuQJf-36" edge="1">
          <mxGeometry relative="1" as="geometry" />
        </mxCell>
        <mxCell id="fjDR_h0SIAO27UseuQJf-25" value="Actor" style="shape=umlActor;verticalLabelPosition=bottom;labelBackgroundColor=#ffffff;verticalAlign=top;html=1;outlineConnect=0;" parent="1" vertex="1">
          <mxGeometry x="80" y="520" width="30" height="60" as="geometry" />
        </mxCell>
        <mxCell id="fjDR_h0SIAO27UseuQJf-50" style="edgeStyle=orthogonalEdgeStyle;rounded=0;orthogonalLoop=1;jettySize=auto;html=1;exitX=0.5;exitY=1;exitDx=0;exitDy=0;entryX=0.5;entryY=0;entryDx=0;entryDy=0;strokeWidth=3;" parent="1" source="fjDR_h0SIAO27UseuQJf-36" target="fjDR_h0SIAO27UseuQJf-49" edge="1">
          <mxGeometry relative="1" as="geometry" />
        </mxCell>
        <mxCell id="fjDR_h0SIAO27UseuQJf-36" value="Browser" style="rounded=1;whiteSpace=wrap;html=1;align=center;fillColor=#fff2cc;strokeColor=#d6b656;" parent="1" vertex="1">
          <mxGeometry x="230" y="520" width="120" height="60" as="geometry" />
        </mxCell>
        <mxCell id="fjDR_h0SIAO27UseuQJf-42" style="edgeStyle=orthogonalEdgeStyle;rounded=0;orthogonalLoop=1;jettySize=auto;html=1;exitX=0.5;exitY=1;exitDx=0;exitDy=0;entryX=0.5;entryY=0;entryDx=0;entryDy=0;strokeWidth=3;fillColor=#f8cecc;strokeColor=#b85450;" parent="1" source="fjDR_h0SIAO27UseuQJf-38" target="fjDR_h0SIAO27UseuQJf-41" edge="1">
          <mxGeometry relative="1" as="geometry" />
        </mxCell>
        <mxCell id="fjDR_h0SIAO27UseuQJf-38" value="Server" style="rounded=1;whiteSpace=wrap;html=1;fillColor=#d5e8d4;strokeColor=#82b366;" parent="1" vertex="1">
          <mxGeometry x="540" y="520" width="120" height="60" as="geometry" />
        </mxCell>
        <mxCell id="fjDR_h0SIAO27UseuQJf-40" value="Show me my files" style="text;html=1;strokeColor=none;fillColor=none;align=center;verticalAlign=middle;whiteSpace=wrap;rounded=0;" parent="1" vertex="1">
          <mxGeometry x="171.5" y="600" width="127" height="20" as="geometry" />
        </mxCell>
        <mxCell id="fjDR_h0SIAO27UseuQJf-47" style="edgeStyle=orthogonalEdgeStyle;rounded=0;orthogonalLoop=1;jettySize=auto;html=1;exitX=0.5;exitY=1;exitDx=0;exitDy=0;strokeWidth=3;fillColor=#f8cecc;strokeColor=#b85450;" parent="1" source="fjDR_h0SIAO27UseuQJf-41" target="fjDR_h0SIAO27UseuQJf-46" edge="1">
          <mxGeometry relative="1" as="geometry" />
        </mxCell>
        <mxCell id="fjDR_h0SIAO27UseuQJf-41" value="go-Tree" style="rounded=1;whiteSpace=wrap;html=1;fillColor=#dae8fc;strokeColor=#6c8ebf;" parent="1" vertex="1">
          <mxGeometry x="540" y="630" width="120" height="60" as="geometry" />
        </mxCell>
        <mxCell id="fjDR_h0SIAO27UseuQJf-52" style="edgeStyle=orthogonalEdgeStyle;rounded=0;orthogonalLoop=1;jettySize=auto;html=1;exitX=0;exitY=0.5;exitDx=0;exitDy=0;entryX=0.5;entryY=1;entryDx=0;entryDy=0;strokeWidth=3;fillColor=#f8cecc;strokeColor=#b85450;" parent="1" source="fjDR_h0SIAO27UseuQJf-46" target="fjDR_h0SIAO27UseuQJf-49" edge="1">
          <mxGeometry relative="1" as="geometry" />
        </mxCell>
        <mxCell id="fjDR_h0SIAO27UseuQJf-46" value="json-Tree for current folder" style="rounded=1;whiteSpace=wrap;html=1;fillColor=#dae8fc;strokeColor=#6c8ebf;" parent="1" vertex="1">
          <mxGeometry x="540" y="720" width="120" height="60" as="geometry" />
        </mxCell>
        <mxCell id="fjDR_h0SIAO27UseuQJf-51" style="edgeStyle=orthogonalEdgeStyle;rounded=0;orthogonalLoop=1;jettySize=auto;html=1;exitX=1;exitY=0.5;exitDx=0;exitDy=0;entryX=0;entryY=0.5;entryDx=0;entryDy=0;strokeWidth=3;fillColor=#f8cecc;strokeColor=#b85450;" parent="1" source="fjDR_h0SIAO27UseuQJf-49" target="fjDR_h0SIAO27UseuQJf-38" edge="1">
          <mxGeometry relative="1" as="geometry" />
        </mxCell>
        <mxCell id="fjDR_h0SIAO27UseuQJf-53" style="edgeStyle=orthogonalEdgeStyle;rounded=0;orthogonalLoop=1;jettySize=auto;html=1;exitX=0.75;exitY=0;exitDx=0;exitDy=0;entryX=0.75;entryY=1;entryDx=0;entryDy=0;strokeWidth=3;" parent="1" source="fjDR_h0SIAO27UseuQJf-49" target="fjDR_h0SIAO27UseuQJf-36" edge="1">
          <mxGeometry relative="1" as="geometry" />
        </mxCell>
        <mxCell id="fjDR_h0SIAO27UseuQJf-49" value="Frontend (js)" style="rounded=1;whiteSpace=wrap;html=1;align=center;fillColor=#fff2cc;strokeColor=#d6b656;" parent="1" vertex="1">
          <mxGeometry x="230" y="660" width="120" height="60" as="geometry" />
        </mxCell>
        <mxCell id="fjDR_h0SIAO27UseuQJf-54" value="Display tree struct nicely" style="text;html=1;strokeColor=none;fillColor=none;align=center;verticalAlign=middle;whiteSpace=wrap;rounded=0;" parent="1" vertex="1">
          <mxGeometry x="310" y="610" width="127" height="20" as="geometry" />
        </mxCell>
        <mxCell id="fjDR_h0SIAO27UseuQJf-55" value="Show user directory tree" style="rounded=1;whiteSpace=wrap;html=1;" parent="1" vertex="1">
          <mxGeometry x="70" y="440" width="590" height="60" as="geometry" />
        </mxCell>
        <mxCell id="fjDR_h0SIAO27UseuQJf-58" value="&lt;span style=&quot;font-family: monospace ; font-size: 0px&quot;&gt;%3CmxGraphModel%3E%3Croot%3E%3CmxCell%20id%3D%220%22%2F%3E%3CmxCell%20id%3D%221%22%20parent%3D%220%22%2F%3E%3CmxCell%20id%3D%222%22%20value%3D%22Server%22%20style%3D%22rounded%3D1%3BwhiteSpace%3Dwrap%3Bhtml%3D1%3BfillColor%3D%23d5e8d4%3BstrokeColor%3D%2382b366%3B%22%20vertex%3D%221%22%20parent%3D%221%22%3E%3CmxGeometry%20x%3D%22540%22%20y%3D%22950%22%20width%3D%22120%22%20height%3D%2260%22%20as%3D%22geometry%22%2F%3E%3C%2FmxCell%3E%3C%2Froot%3E%3C%2FmxGraphModel%3E&lt;/span&gt;" style="rounded=0;whiteSpace=wrap;html=1;" parent="1" vertex="1">
          <mxGeometry x="51.5" y="860" width="638.5" height="410" as="geometry" />
        </mxCell>
        <mxCell id="fjDR_h0SIAO27UseuQJf-59" style="edgeStyle=orthogonalEdgeStyle;rounded=0;orthogonalLoop=1;jettySize=auto;html=1;exitX=0.5;exitY=0.5;exitDx=0;exitDy=0;exitPerimeter=0;entryX=0;entryY=0.5;entryDx=0;entryDy=0;strokeWidth=3;" parent="1" source="fjDR_h0SIAO27UseuQJf-60" target="fjDR_h0SIAO27UseuQJf-62" edge="1">
          <mxGeometry relative="1" as="geometry" />
        </mxCell>
        <mxCell id="fjDR_h0SIAO27UseuQJf-60" value="Actor" style="shape=umlActor;verticalLabelPosition=bottom;labelBackgroundColor=#ffffff;verticalAlign=top;html=1;outlineConnect=0;" parent="1" vertex="1">
          <mxGeometry x="80" y="950" width="30" height="60" as="geometry" />
        </mxCell>
        <mxCell id="fjDR_h0SIAO27UseuQJf-61" style="edgeStyle=orthogonalEdgeStyle;rounded=0;orthogonalLoop=1;jettySize=auto;html=1;exitX=0.5;exitY=1;exitDx=0;exitDy=0;entryX=0.5;entryY=0;entryDx=0;entryDy=0;strokeWidth=3;" parent="1" source="fjDR_h0SIAO27UseuQJf-62" target="fjDR_h0SIAO27UseuQJf-72" edge="1">
          <mxGeometry relative="1" as="geometry" />
        </mxCell>
        <mxCell id="fjDR_h0SIAO27UseuQJf-62" value="Browser" style="rounded=1;whiteSpace=wrap;html=1;align=center;fillColor=#fff2cc;strokeColor=#d6b656;" parent="1" vertex="1">
          <mxGeometry x="230" y="950" width="120" height="60" as="geometry" />
        </mxCell>
        <mxCell id="fjDR_h0SIAO27UseuQJf-63" style="edgeStyle=orthogonalEdgeStyle;rounded=0;orthogonalLoop=1;jettySize=auto;html=1;exitX=0.5;exitY=1;exitDx=0;exitDy=0;entryX=0.5;entryY=0;entryDx=0;entryDy=0;strokeWidth=3;fillColor=#f8cecc;strokeColor=#b85450;" parent="1" source="fjDR_h0SIAO27UseuQJf-64" target="fjDR_h0SIAO27UseuQJf-67" edge="1">
          <mxGeometry relative="1" as="geometry" />
        </mxCell>
        <mxCell id="fjDR_h0SIAO27UseuQJf-64" value="Server" style="rounded=1;whiteSpace=wrap;html=1;fillColor=#d5e8d4;strokeColor=#82b366;" parent="1" vertex="1">
          <mxGeometry x="540" y="950" width="120" height="60" as="geometry" />
        </mxCell>
        <mxCell id="fjDR_h0SIAO27UseuQJf-65" value="Upload file; create folder; rename folder etc." style="text;html=1;strokeColor=none;fillColor=none;align=center;verticalAlign=middle;whiteSpace=wrap;rounded=0;" parent="1" vertex="1">
          <mxGeometry x="168.5" y="1030" width="127" height="20" as="geometry" />
        </mxCell>
        <mxCell id="fjDR_h0SIAO27UseuQJf-66" style="edgeStyle=orthogonalEdgeStyle;rounded=0;orthogonalLoop=1;jettySize=auto;html=1;exitX=0.5;exitY=1;exitDx=0;exitDy=0;strokeWidth=3;fillColor=#f8cecc;strokeColor=#b85450;" parent="1" source="fjDR_h0SIAO27UseuQJf-67" target="fjDR_h0SIAO27UseuQJf-69" edge="1">
          <mxGeometry relative="1" as="geometry" />
        </mxCell>
        <mxCell id="fjDR_h0SIAO27UseuQJf-75" style="edgeStyle=orthogonalEdgeStyle;rounded=0;orthogonalLoop=1;jettySize=auto;html=1;exitX=0.167;exitY=1;exitDx=0;exitDy=0;entryX=0.417;entryY=1;entryDx=0;entryDy=0;entryPerimeter=0;strokeWidth=3;fillColor=#f8cecc;strokeColor=#b85450;exitPerimeter=0;" parent="1" source="fjDR_h0SIAO27UseuQJf-67" target="fjDR_h0SIAO27UseuQJf-72" edge="1">
          <mxGeometry relative="1" as="geometry" />
        </mxCell>
        <mxCell id="fjDR_h0SIAO27UseuQJf-67" value="Is this possible?" style="rounded=1;whiteSpace=wrap;html=1;fillColor=#dae8fc;strokeColor=#6c8ebf;" parent="1" vertex="1">
          <mxGeometry x="540" y="1060" width="120" height="60" as="geometry" />
        </mxCell>
        <mxCell id="fjDR_h0SIAO27UseuQJf-79" style="edgeStyle=orthogonalEdgeStyle;rounded=0;orthogonalLoop=1;jettySize=auto;html=1;exitX=0;exitY=0.5;exitDx=0;exitDy=0;entryX=1;entryY=0.5;entryDx=0;entryDy=0;strokeWidth=3;fillColor=#f8cecc;strokeColor=#b85450;" parent="1" source="fjDR_h0SIAO27UseuQJf-69" target="fjDR_h0SIAO27UseuQJf-78" edge="1">
          <mxGeometry relative="1" as="geometry" />
        </mxCell>
        <mxCell id="fjDR_h0SIAO27UseuQJf-69" value="Update directory" style="rounded=1;whiteSpace=wrap;html=1;fillColor=#dae8fc;strokeColor=#6c8ebf;" parent="1" vertex="1">
          <mxGeometry x="540" y="1190" width="120" height="60" as="geometry" />
        </mxCell>
        <mxCell id="fjDR_h0SIAO27UseuQJf-70" style="edgeStyle=orthogonalEdgeStyle;rounded=0;orthogonalLoop=1;jettySize=auto;html=1;exitX=1;exitY=0.5;exitDx=0;exitDy=0;entryX=0;entryY=0.5;entryDx=0;entryDy=0;strokeWidth=3;fillColor=#f8cecc;strokeColor=#b85450;" parent="1" source="fjDR_h0SIAO27UseuQJf-72" target="fjDR_h0SIAO27UseuQJf-64" edge="1">
          <mxGeometry relative="1" as="geometry" />
        </mxCell>
        <mxCell id="fjDR_h0SIAO27UseuQJf-71" style="edgeStyle=orthogonalEdgeStyle;rounded=0;orthogonalLoop=1;jettySize=auto;html=1;exitX=0.75;exitY=0;exitDx=0;exitDy=0;entryX=0.75;entryY=1;entryDx=0;entryDy=0;strokeWidth=3;" parent="1" source="fjDR_h0SIAO27UseuQJf-72" target="fjDR_h0SIAO27UseuQJf-62" edge="1">
          <mxGeometry relative="1" as="geometry" />
        </mxCell>
        <mxCell id="fjDR_h0SIAO27UseuQJf-72" value="Frontend (js)" style="rounded=1;whiteSpace=wrap;html=1;align=center;fillColor=#fff2cc;strokeColor=#d6b656;" parent="1" vertex="1">
          <mxGeometry x="230" y="1090" width="120" height="60" as="geometry" />
        </mxCell>
        <mxCell id="fjDR_h0SIAO27UseuQJf-74" value="User changes something" style="rounded=1;whiteSpace=wrap;html=1;" parent="1" vertex="1">
          <mxGeometry x="70" y="870" width="590" height="60" as="geometry" />
        </mxCell>
        <mxCell id="fjDR_h0SIAO27UseuQJf-76" value="Yes/No" style="text;html=1;strokeColor=none;fillColor=none;align=center;verticalAlign=middle;whiteSpace=wrap;rounded=0;" parent="1" vertex="1">
          <mxGeometry x="380" y="1148" width="127" height="20" as="geometry" />
        </mxCell>
        <mxCell id="fjDR_h0SIAO27UseuQJf-80" style="edgeStyle=orthogonalEdgeStyle;rounded=0;orthogonalLoop=1;jettySize=auto;html=1;exitX=0;exitY=0.5;exitDx=0;exitDy=0;entryX=0.2;entryY=0.983;entryDx=0;entryDy=0;entryPerimeter=0;strokeWidth=3;fillColor=#60a917;strokeColor=#2D7600;" parent="1" source="fjDR_h0SIAO27UseuQJf-78" target="fjDR_h0SIAO27UseuQJf-72" edge="1">
          <mxGeometry relative="1" as="geometry" />
        </mxCell>
        <mxCell id="fjDR_h0SIAO27UseuQJf-78" value="update json-Tree" style="rounded=1;whiteSpace=wrap;html=1;fillColor=#dae8fc;strokeColor=#6c8ebf;" parent="1" vertex="1">
          <mxGeometry x="387" y="1190" width="120" height="60" as="geometry" />
        </mxCell>
        <mxCell id="fjDR_h0SIAO27UseuQJf-81" value="Batching&lt;br&gt;timeout" style="ellipse;whiteSpace=wrap;html=1;aspect=fixed;fillColor=#e1d5e7;strokeColor=#9673a6;" parent="1" vertex="1">
          <mxGeometry x="130" y="1040" width="50" height="50" as="geometry" />
        </mxCell>
        <mxCell id="fjDR_h0SIAO27UseuQJf-82" value="1. PUT" style="ellipse;whiteSpace=wrap;html=1;aspect=fixed;fillColor=#f8cecc;strokeColor=#b85450;" parent="1" vertex="1">
          <mxGeometry x="387" y="1040" width="50" height="50" as="geometry" />
        </mxCell>
        <mxCell id="fjDR_h0SIAO27UseuQJf-83" value="if 200 &lt;br&gt;2. GET" style="ellipse;whiteSpace=wrap;html=1;aspect=fixed;fillColor=#60a917;strokeColor=#2D7600;fontColor=#ffffff;" parent="1" vertex="1">
          <mxGeometry x="200" y="1200" width="50" height="50" as="geometry" />
        </mxCell>
        <mxCell id="fjDR_h0SIAO27UseuQJf-84" value="GET" style="ellipse;whiteSpace=wrap;html=1;aspect=fixed;fillColor=#f8cecc;strokeColor=#b85450;" parent="1" vertex="1">
          <mxGeometry x="390" y="635" width="50" height="50" as="geometry" />
        </mxCell>
        <mxCell id="7BhTMV-kbdXD-s7NIpyR-1" value="&lt;span style=&quot;font-family: monospace ; font-size: 0px&quot;&gt;dra&lt;/span&gt;" style="rounded=0;whiteSpace=wrap;html=1;" parent="1" vertex="1">
          <mxGeometry x="52.5" y="1290" width="638.5" height="360" as="geometry" />
        </mxCell>
        <mxCell id="7BhTMV-kbdXD-s7NIpyR-2" value="&lt;b&gt;Server&lt;/b&gt;" style="rounded=1;whiteSpace=wrap;html=1;fillColor=#d5e8d4;strokeColor=#82b366;" parent="1" vertex="1">
          <mxGeometry x="95" y="1330" width="535" height="60" as="geometry" />
        </mxCell>
        <mxCell id="4B11ItCcAH0ggCF13_-q-1" value="Routes Rest API" style="swimlane;whiteSpace=wrap;html=1;fillColor=#f8cecc;strokeColor=#b85450;" parent="1" vertex="1">
          <mxGeometry x="95" y="1395.5" width="200" height="224.5" as="geometry" />
        </mxCell>
        <mxCell id="4B11ItCcAH0ggCF13_-q-2" value="&lt;div&gt;- POST file&lt;/div&gt;&lt;div&gt;&lt;font color=&quot;#cc6600&quot;&gt;- GET file&lt;/font&gt;&lt;/div&gt;- GET UserPosition&lt;br&gt;&lt;font color=&quot;#cc6600&quot;&gt;- GET AllFileNames&lt;br&gt;- GET DirectoryStructure&lt;br&gt;- GET fileMetaData&lt;br&gt;&lt;/font&gt;&lt;font color=&quot;#009999&quot;&gt;- POST create folder&lt;br&gt;- POST create empty file&lt;br&gt;- PUTS update file&lt;br&gt;- DELETE files; folders&amp;nbsp;&lt;br&gt;- POST Register&lt;br&gt;- POST Login&lt;br&gt;- GET current folder-files&lt;br&gt;&lt;/font&gt;" style="text;html=1;align=left;verticalAlign=middle;resizable=0;points=[];autosize=1;strokeColor=none;fillColor=none;" parent="4B11ItCcAH0ggCF13_-q-1" vertex="1">
          <mxGeometry x="15" y="24.5" width="160" height="200" as="geometry" />
        </mxCell>
        <mxCell id="4B11ItCcAH0ggCF13_-q-3" value="Routes Admin Dashboard" style="swimlane;whiteSpace=wrap;html=1;fillColor=#f8cecc;strokeColor=#b85450;" parent="1" vertex="1">
          <mxGeometry x="315" y="1395.5" width="200" height="130" as="geometry" />
        </mxCell>
        <mxCell id="4B11ItCcAH0ggCF13_-q-4" value="&lt;div align=&quot;left&quot;&gt;- POST new USER&lt;br&gt;&lt;font color=&quot;#cc6600&quot;&gt;- GET all users&lt;/font&gt;&lt;/div&gt;&lt;div align=&quot;left&quot;&gt;- PUTS update USER&lt;/div&gt;&lt;div align=&quot;left&quot;&gt;&lt;font color=&quot;#cc6600&quot;&gt;- GET is user data unique&lt;/font&gt;&lt;/div&gt;&lt;div align=&quot;left&quot;&gt;- DELETE USER&lt;/div&gt;&lt;div align=&quot;left&quot;&gt;- POST restart Pi&lt;/div&gt;&lt;div align=&quot;left&quot;&gt;&lt;font color=&quot;#cc6600&quot;&gt;- GET status of Pi&lt;/font&gt;&lt;br&gt;&lt;/div&gt;" style="text;html=1;align=left;verticalAlign=middle;resizable=0;points=[];autosize=1;strokeColor=none;fillColor=none;" parent="4B11ItCcAH0ggCF13_-q-3" vertex="1">
          <mxGeometry x="12" y="27" width="150" height="100" as="geometry" />
        </mxCell>
        <mxCell id="4B11ItCcAH0ggCF13_-q-7" value="Database table" style="swimlane;whiteSpace=wrap;html=1;fillColor=#e1d5e7;strokeColor=#9673a6;startSize=23;" parent="1" vertex="1">
          <mxGeometry x="315" y="1540" width="272" height="90" as="geometry" />
        </mxCell>
        <mxCell id="4B11ItCcAH0ggCF13_-q-8" value="&lt;div align=&quot;left&quot;&gt;&lt;font color=&quot;#009999&quot;&gt;- Users: Name, Role,&amp;nbsp; email Adresse, Position&lt;/font&gt;&lt;/div&gt;&lt;div align=&quot;left&quot;&gt;&lt;br&gt;&lt;/div&gt;" style="text;html=1;align=left;verticalAlign=middle;resizable=0;points=[];autosize=1;strokeColor=none;fillColor=none;" parent="4B11ItCcAH0ggCF13_-q-7" vertex="1">
          <mxGeometry x="12" y="34" width="260" height="30" as="geometry" />
        </mxCell>
      </root>
    </mxGraphModel>
  </diagram>
</mxfile>
